<svg width="25" height="28" viewBox="0 0 25 28" fill="none" xmlns="http://www.w3.org/2000/svg">
<g id="icon_108.svg" clip-path="url(#clip0_1_603)">
<path id="Vector" fill-rule="evenodd" clip-rule="evenodd" d="M17.7338 25.6374H7.09621C3.18877 25.6374 0.191128 24.2261 1.0426 18.5457L2.03404 10.8475C2.55892 8.01314 4.36684 6.92839 5.95314 6.92839H18.9235C20.5331 6.92839 22.2361 8.09478 22.8426 10.8475L23.834 18.5457C24.5572 23.5845 21.6412 25.6374 17.7338 25.6374Z" stroke="#FF3294" stroke-width="1.339" stroke-linecap="round" stroke-linejoin="round"/>
<path id="Vector_2" opacity="0.4" d="M17.9079 6.64813C17.9079 3.60758 15.443 1.14267 12.4025 1.14267C10.9384 1.13652 9.53197 1.71381 8.4945 2.74695C7.45698 3.78008 6.87376 5.18395 6.87376 6.64813" stroke="#FF3294" stroke-width="1.339" stroke-linecap="round" stroke-linejoin="round"/>
<path id="Vector_3" d="M16.1865 12.387H16.1283" stroke="#FF3294" stroke-width="1.339" stroke-linecap="round" stroke-linejoin="round"/>
<path id="Vector_4" d="M8.75229 12.387H8.69397" stroke="#FF3294" stroke-width="1.339" stroke-linecap="round" stroke-linejoin="round"/>
</g>
<defs>
<clipPath id="clip0_1_603">
<rect width="24.9947" height="26.78" fill="white" transform="translate(0.00267029 0.249954)"/>
</clipPath>
</defs>
</svg>
