<svg width="25" height="30" viewBox="0 0 25 30" fill="none" xmlns="http://www.w3.org/2000/svg">
<g id="icon_110.svg" clip-path="url(#clip0_1_635)">
<path id="Vector" fill-rule="evenodd" clip-rule="evenodd" d="M22.4008 4.51435C23.0309 4.73497 23.452 5.32905 23.452 5.99666V15.7629C23.452 18.4925 22.4599 21.0981 20.708 23.1168C19.827 24.1334 18.7123 24.925 17.5285 25.5652L12.3981 28.3366L7.259 25.5638C6.07373 24.9235 4.95767 24.1334 4.0752 23.1154C2.32181 21.0966 1.32687 18.4896 1.32687 15.7572V5.99666C1.32687 5.32905 1.74792 4.73497 2.37804 4.51435L11.8689 1.17916C12.2063 1.06092 12.574 1.06092 12.91 1.17916L22.4008 4.51435Z" stroke="#FF3294" stroke-width="1.44194" stroke-linecap="round" stroke-linejoin="round"/>
<path id="Vector_2" opacity="0.4" d="M8.64169 14.3107L11.3698 17.0403L16.9905 11.4196" stroke="#FF3294" stroke-width="1.44194" stroke-linecap="round" stroke-linejoin="round"/>
</g>
<defs>
<clipPath id="clip0_1_635">
<rect width="24.9935" height="29.8" fill="white" transform="translate(0.0032196 0.00996399)"/>
</clipPath>
</defs>
</svg>
